<svg width="15" height="26" viewBox="0 0 15 26" fill="none" xmlns="http://www.w3.org/2000/svg">
<path d="M10.0079 12.5417L0.524767 22.0248C-0.174922 22.7245 -0.174922 23.8589 0.524767 24.5586C1.22446 25.2583 2.35888 25.2583 3.05857 24.5586L13.8086 13.8086C14.5083 13.1089 14.5083 11.9745 13.8086 11.2748L3.05857 0.524767C2.35888 -0.174922 1.22446 -0.174922 0.524767 0.524767C-0.174922 1.22446 -0.174922 2.35888 0.524767 3.05857L10.0079 12.5417Z" fill="#F76B1C"/>
<mask id="mask0" mask-type="alpha" maskUnits="userSpaceOnUse" x="0" y="0" width="15" height="26">
<path d="M10.0079 12.5417L0.524767 22.0248C-0.174922 22.7245 -0.174922 23.8589 0.524767 24.5586C1.22446 25.2583 2.35888 25.2583 3.05857 24.5586L13.8086 13.8086C14.5083 13.1089 14.5083 11.9745 13.8086 11.2748L3.05857 0.524767C2.35888 -0.174922 1.22446 -0.174922 0.524767 0.524767C-0.174922 1.22446 -0.174922 2.35888 0.524767 3.05857L10.0079 12.5417Z" fill="white"/>
</mask>
<g mask="url(#mask0)">
</g>
</svg>
