<svg width="15" height="26" viewBox="0 0 15 26" fill="none" xmlns="http://www.w3.org/2000/svg">
<path d="M4.32545 12.5417L13.8085 22.0248C14.5082 22.7245 14.5082 23.8589 13.8085 24.5586C13.1089 25.2583 11.9744 25.2583 11.2747 24.5586L0.524747 13.8086C-0.174942 13.1089 -0.174942 11.9745 0.524747 11.2748L11.2747 0.524767C11.9744 -0.174922 13.1089 -0.174922 13.8085 0.524767C14.5082 1.22446 14.5082 2.35888 13.8085 3.05857L4.32545 12.5417Z" fill="#F76C1D"/>
<mask id="mask0" mask-type="alpha" maskUnits="userSpaceOnUse" x="0" y="0" width="15" height="26">
<path d="M4.32545 12.5417L13.8085 22.0248C14.5082 22.7245 14.5082 23.8589 13.8085 24.5586C13.1089 25.2583 11.9744 25.2583 11.2747 24.5586L0.524747 13.8086C-0.174942 13.1089 -0.174942 11.9745 0.524747 11.2748L11.2747 0.524767C11.9744 -0.174922 13.1089 -0.174922 13.8085 0.524767C14.5082 1.22446 14.5082 2.35888 13.8085 3.05857L4.32545 12.5417Z" fill="white"/>
</mask>
<g mask="url(#mask0)">
</g>
</svg>
