<svg width="80" height="78" viewBox="0 0 80 78" fill="none" xmlns="http://www.w3.org/2000/svg">
<path opacity="0.302958" d="M39 78C60.5391 78 78 60.5391 78 39C78 17.4609 60.5391 0 39 0C17.4609 0 3.05176e-05 17.4609 3.05176e-05 39C3.05176e-05 60.5391 17.4609 78 39 78Z" fill="#FFBF00"/>
<path opacity="0.5" fill-rule="evenodd" clip-rule="evenodd" d="M46.3334 9.281V20H36.5584L46.3334 9.281ZM57.3334 64H35.3334C35.3334 64 35.3334 23 35.3334 22H47.3334C47.8854 22 48.3334 21.552 48.3334 21V8H75.3334V44C75.3334 44.551 75.7834 45 76.3334 45C76.8854 45 77.3334 44.551 77.3334 44V7C77.3334 6.448 76.8854 6 76.3334 6H47.0614C46.7774 6 46.5114 6.118 46.3204 6.326L33.5934 20.282C33.4254 20.466 33.3334 20.706 33.3334 20.956V65C33.3334 65.551 33.7834 66 34.3334 66H57.3334C57.8854 66 58.3334 65.551 58.3334 65C58.3334 64.449 57.8854 64 57.3334 64ZM68.5744 53.292C66.3064 55.569 62.3584 55.569 60.0904 53.292C58.9574 52.153 58.3324 50.641 58.3324 49.029C58.3324 47.419 58.9574 45.905 60.0904 44.768C61.2234 43.629 62.7314 43 64.3334 43C65.9354 43 67.4414 43.629 68.5744 44.766C69.7084 45.905 70.3324 47.417 70.3324 49.029C70.3324 50.641 69.7084 52.156 68.5744 53.292ZM79.0394 63.295L70.1864 54.441C71.5674 52.959 72.3324 51.04 72.3324 49C72.3324 46.867 71.5004 44.854 69.9904 43.348C68.4794 41.833 66.4694 41 64.3334 41C62.1964 41 60.1874 41.833 58.6764 43.348C57.1634 44.856 56.3324 46.867 56.3324 49C56.3324 51.138 57.1634 53.146 58.6764 54.657C60.1864 56.168 62.1944 57 64.3314 57C65.8854 57 67.3704 56.555 68.6494 55.732L77.6254 64.709C77.8214 64.902 78.0774 65 78.3334 65C78.5924 65 78.8484 64.902 79.0394 64.709C79.4304 64.318 79.4304 63.682 79.0394 63.295Z" fill="#575C6B"/>
</svg>
