<svg width="78" height="78" viewBox="0 0 78 78" fill="none" xmlns="http://www.w3.org/2000/svg">
<path opacity="0.526284" d="M39 78C60.5391 78 78 60.5391 78 39C78 17.4609 60.5391 0 39 0C17.4609 0 0 17.4609 0 39C0 60.5391 17.4609 78 39 78Z" fill="#FEAF4D"/>
<path opacity="0.5" fill-rule="evenodd" clip-rule="evenodd" d="M64 30C64.55 30 65 29.552 65 29C65 28.448 64.55 28 64 28H44C43.448 28 43 28.448 43 29C43 29.552 43.448 30 44 30H64ZM36 24H70C70.55 24 71 23.552 71 23C71 22.448 70.55 22 70 22H36C35.448 22 35 22.448 35 23C35 23.552 35.448 24 36 24ZM30 8H76V64H30V8ZM77 6H29C28.448 6 28 6.448 28 7V65C28 65.551 28.448 66 29 66H77C77.55 66 78 65.551 78 65V7C78 6.448 77.55 6 77 6ZM44 18H64C64.55 18 65 17.552 65 17C65 16.448 64.55 16 64 16H44C43.448 16 43 16.448 43 17C43 17.552 43.448 18 44 18ZM61.288 54.803C60.93 54.68 60.532 54.777 60.266 55.044L56.516 58.794L54.728 51.647C57.344 51.259 59.572 49.681 60.842 47.477L66.225 56.445L61.288 54.803ZM46.978 43.25C46.978 39.666 49.894 36.75 53.478 36.75C57.063 36.75 59.978 39.666 59.978 43.25C59.978 46.834 57.063 49.75 53.478 49.75C49.894 49.75 46.978 46.834 46.978 43.25ZM50.434 58.801L46.684 55.051C46.416 54.779 46.02 54.684 45.66 54.809L40.724 56.451L46.111 47.472C47.38 49.678 49.607 51.257 52.222 51.646L50.434 58.801ZM61.83 45.234C61.81 45.202 61.779 45.183 61.756 45.153C61.897 44.541 61.978 43.905 61.978 43.25C61.978 38.564 58.164 34.75 53.478 34.75C48.792 34.75 44.978 38.564 44.978 43.25C44.978 43.904 45.059 44.538 45.2 45.149C45.174 45.182 45.14 45.203 45.118 45.238L37.618 57.738C37.404 58.096 37.434 58.553 37.696 58.876C37.958 59.204 38.392 59.334 38.792 59.199L45.706 56.898L50.27 61.458C50.462 61.648 50.716 61.75 50.978 61.75C51.066 61.75 51.156 61.738 51.24 61.719C51.588 61.622 51.858 61.346 51.944 60.996L53.475 54.87L55.006 60.992C55.094 61.34 55.362 61.615 55.71 61.715C55.8 61.738 55.891 61.75 55.978 61.75C56.24 61.75 56.494 61.648 56.678 61.454L61.24 56.895L68.154 59.195C68.55 59.33 68.99 59.199 69.252 58.872C69.514 58.546 69.544 58.094 69.33 57.734L61.83 45.234Z" fill="#575C6B"/>
</svg>
