<svg width="83" height="78" viewBox="0 0 83 78" fill="none" xmlns="http://www.w3.org/2000/svg">
<path opacity="0.243527" d="M39 78C60.5391 78 78 60.5391 78 39C78 17.4609 60.5391 0 39 0C17.4609 0 0 17.4609 0 39C0 60.5391 17.4609 78 39 78Z" fill="#DBDBDB"/>
<path opacity="0.5" fill-rule="evenodd" clip-rule="evenodd" d="M70.16 58.084C68.53 56.799 66.29 56 63.47 56H61.17L58.39 52.414C61.54 49.821 63.76 45.316 63.92 41.282C66.87 38.133 64.9 30.071 64.38 28.153C65.06 26.038 64.73 23.712 63.46 21.87C61 18.319 55.86 17.727 50.82 20.748C42.9 20.826 41.68 24.216 41.65 27.929C41.22 29.062 39.37 34.747 42.05 41.054C42.13 45.172 44.4 49.836 47.65 52.468L44.96 56H42.65C39.81 56 37.54 56.827 35.88 58.11C29.28 52.986 25.02 44.983 25.02 36C25.02 20.57 37.57 8.017 53 8.017C68.43 8.017 80.98 20.57 80.98 36C80.98 44.969 76.74 52.959 70.16 58.084ZM62.35 28.399C63.4 32.02 64.3 38.385 62.27 40.065C62.04 40.256 61.91 40.542 61.91 40.841C61.91 46.005 57.71 52.556 52.99 52.556C48.27 52.556 44.07 46.005 44.07 40.841C44.07 40.701 44.04 40.563 43.98 40.436C41.27 34.271 43.56 28.563 43.59 28.506C43.63 28.384 43.66 28.252 43.66 28.12C43.66 25.085 44.21 22.763 51.11 22.763C51.3 22.763 51.48 22.71 51.64 22.611C53.62 21.382 55.5 20.76 57.23 20.76C59.17 20.76 60.79 21.562 61.8 23.017C62.76 24.407 62.97 26.182 62.38 27.764C62.3 27.966 62.29 28.19 62.35 28.399ZM53 63.983C47.31 63.983 42.02 62.274 37.6 59.35C38.86 58.537 40.55 58 42.65 58H45.47C45.8 58 46.1 58.037 46.29 57.775L49.42 53.634C50.55 54.221 51.75 54.572 52.99 54.572C54.26 54.572 55.49 54.204 56.64 53.589L59.85 57.811C60.04 58.066 60.34 58 60.66 58H63.47C65.54 58 67.2 58.518 68.44 59.325C64.01 62.266 58.7 63.983 53 63.983ZM53 6C36.46 6 23 19.458 23 36C23 52.542 36.46 66 53 66C59.44 66 65.41 63.953 70.3 60.486C70.46 60.42 70.61 60.302 70.74 60.176C78.17 54.71 83 45.91 83 36C83 19.458 69.54 6 53 6Z" fill="#575C6B"/>
</svg>
