<svg width="78" height="78" viewBox="0 0 78 78" fill="none" xmlns="http://www.w3.org/2000/svg">
<path opacity="0.58058" d="M39 78C60.5391 78 78 60.5391 78 39C78 17.4609 60.5391 0 39 0C17.4609 0 0 17.4609 0 39C0 60.5391 17.4609 78 39 78Z" fill="#DBDBDB"/>
<path opacity="0.5" fill-rule="evenodd" clip-rule="evenodd" d="M31.6667 23C31.6667 23.552 32.1147 24 32.6667 24H58.6667C59.2197 24 59.6667 23.552 59.6667 23C59.6667 22.448 59.2197 22 58.6667 22H32.6667C32.1147 22 31.6667 22.448 31.6667 23ZM31.6667 17C31.6667 17.552 32.1147 18 32.6667 18H43.9377C44.4907 18 44.9377 17.552 44.9377 17C44.9377 16.448 44.4907 16 43.9377 16H32.6667C32.1147 16 31.6667 16.448 31.6667 17ZM58.6667 28H32.6667C32.1147 28 31.6667 28.448 31.6667 29C31.6667 29.552 32.1147 30 32.6667 30H58.6667C59.2197 30 59.6667 29.552 59.6667 29C59.6667 28.448 59.2197 28 58.6667 28ZM63.6667 12V58.25C63.6667 61.027 61.9207 64 58.9167 64H57.6667C55.4587 64 53.6667 62.208 53.6667 60C53.6667 57.792 55.4587 56 57.6667 56C58.2167 56 58.6667 55.551 58.6667 55C58.6667 54.449 58.2167 54 57.6667 54H27.6667V13.25C27.6667 10.292 31.1507 8 33.9147 8H65.5687C64.5627 9.07 63.6667 10.48 63.6667 12ZM53.1987 64H22.6667C20.4587 64 18.6667 62.208 18.6667 60C18.6667 57.792 20.4587 56 22.6667 56H53.1987C52.2467 57.063 51.6667 58.465 51.6667 60C51.6667 61.535 52.2467 62.938 53.1987 64ZM70.6667 6C70.5777 6 70.4977 6.029 70.4157 6.051C70.3337 6.029 70.2537 6 70.1647 6H33.9147C30.1417 6 25.6667 8.978 25.6667 13.25V54H22.6667C19.3577 54 16.6667 56.691 16.6667 60C16.6667 63.309 19.3577 66 22.6667 66H58.9167C62.7207 66 65.6667 62.449 65.6667 58.25V12C65.6667 9.87 67.7777 8 70.0297 8C70.1397 8 70.2487 7.97 70.3557 7.938C70.4557 7.97 70.5567 8 70.6667 8C72.8727 8 74.6667 9.794 74.6667 12C74.6667 14.206 72.8727 16 70.6667 16C70.1147 16 69.6667 16.448 69.6667 17C69.6667 17.552 70.1147 18 70.6667 18C73.9757 18 76.6667 15.308 76.6667 12C76.6667 8.692 73.9757 6 70.6667 6ZM58.6667 40H32.6667C32.1147 40 31.6667 40.449 31.6667 41C31.6667 41.551 32.1147 42 32.6667 42H58.6667C59.2197 42 59.6667 41.551 59.6667 41C59.6667 40.449 59.2197 40 58.6667 40ZM58.6667 46H32.6667C32.1147 46 31.6667 46.449 31.6667 47C31.6667 47.551 32.1147 48 32.6667 48H58.6667C59.2197 48 59.6667 47.551 59.6667 47C59.6667 46.449 59.2197 46 58.6667 46ZM58.6667 34H32.6667C32.1147 34 31.6667 34.448 31.6667 35C31.6667 35.552 32.1147 36 32.6667 36H58.6667C59.2197 36 59.6667 35.552 59.6667 35C59.6667 34.448 59.2197 34 58.6667 34Z" fill="#575C6B"/>
</svg>
